<?xml version="1.0" encoding="utf-8"?>
<!-- Generator: Adobe Illustrator 16.0.0, SVG Export Plug-In . SVG Version: 6.00 Build 0)  -->
<!DOCTYPE svg PUBLIC "-//W3C//DTD SVG 1.1//EN" "http://www.w3.org/Graphics/SVG/1.1/DTD/svg11.dtd">
<svg version="1.1" id="Layer_1" xmlns="http://www.w3.org/2000/svg" xmlns:xlink="http://www.w3.org/1999/xlink" x="0px" y="0px"
	 width="40px" height="40.25px" viewBox="0 0 40 40.25" enable-background="new 0 0 40 40.25" xml:space="preserve">
<g>
	<path fill="#AFAFAF" d="M10,0C4.477,0,0,4.477,0,10c0,5.521,4.477,10,10,10c5.522,0,10-4.479,10-10C20,4.477,15.522,0,10,0z
		 M11.391,7.388c0.708,0.007,1.446-0.015,2.137,0.011c-0.023,0.737-0.006,1.514-0.012,2.268c-0.708,0-1.417,0-2.125,0
		c0,2.334,0,4.667,0,7.001c-0.997,0-1.994,0-2.991,0c0-2.33,0-4.66,0-6.99C7.779,9.652,7.11,9.674,6.471,9.667
		c0-0.76,0-1.519,0-2.279c0.635,0,1.271,0,1.906,0C8.406,6.791,8.369,6.253,8.41,5.767C8.451,5.296,8.608,4.893,8.837,4.55
		c0.435-0.649,1.16-1.159,2.137-1.205c0.807-0.038,1.709,0.02,2.553,0.011c-0.008,0.756,0.015,1.541-0.012,2.279
		c-0.426,0.024-0.854-0.032-1.227,0c-0.38,0.033-0.654,0.268-0.789,0.548C11.35,6.497,11.395,6.912,11.391,7.388z"/>
	<g>
		<path fill="#3D3536" d="M10,20C4.477,20,0,24.477,0,30c0,5.521,4.477,10,10,10c5.522,0,10-4.479,10-10C20,24.477,15.522,20,10,20z
			 M11.391,27.389c0.708,0.006,1.446-0.016,2.137,0.01c-0.023,0.737-0.006,1.515-0.012,2.269c-0.708,0-1.417,0-2.125,0
			c0,2.334,0,4.667,0,7.001c-0.997,0-1.994,0-2.991,0c0-2.33,0-4.66,0-6.99c-0.621-0.025-1.289-0.004-1.928-0.011
			c0-0.76,0-1.519,0-2.278c0.635,0,1.271,0,1.906,0c0.028-0.599-0.009-1.136,0.033-1.623c0.041-0.471,0.198-0.873,0.427-1.216
			c0.435-0.649,1.16-1.159,2.137-1.204c0.807-0.039,1.709,0.02,2.553,0.01c-0.008,0.756,0.015,1.541-0.012,2.279
			c-0.426,0.024-0.854-0.031-1.227,0c-0.38,0.033-0.654,0.268-0.789,0.549C11.35,26.497,11.395,26.912,11.391,27.389z"/>
	</g>
	<g>
		<path fill="#AFAFAF" d="M30,0c-5.523,0-10,4.477-10,10c0,5.521,4.477,10,10,10c5.521,0,10-4.479,10-10C40,4.477,35.521,0,30,0z
			 M35.334,7.271c0.055,1.82-0.454,3.281-1.13,4.418c-0.669,1.123-1.565,2.016-2.64,2.67c-1.08,0.658-2.526,1.136-4.219,1.089
			c-1.582-0.044-2.836-0.499-3.863-1.12c-0.064-0.039-0.144-0.071-0.188-0.137c1.752,0.199,3.104-0.387,4.052-1.121
			c-0.701-0.021-1.234-0.27-1.644-0.596s-0.741-0.769-0.911-1.33c0.357,0.086,0.877,0.062,1.204-0.031
			c-0.656-0.146-1.146-0.498-1.519-0.932c-0.371-0.43-0.647-1.006-0.649-1.79c0.022-0.034,0.077,0.022,0.114,0.042
			c0.291,0.146,0.672,0.26,1.1,0.282c-0.671-0.482-1.352-1.407-1.162-2.69c0.057-0.375,0.188-0.701,0.335-0.974
			c0.185,0.171,0.335,0.377,0.513,0.555c1.233,1.232,2.842,2.145,5.151,2.313c-0.274-1.458,0.458-2.53,1.36-3.036
			c0.492-0.275,1.205-0.42,1.886-0.283c0.621,0.125,1.097,0.438,1.466,0.806c0.68-0.125,1.227-0.378,1.749-0.659
			c-0.229,0.669-0.627,1.173-1.194,1.507c0.569-0.049,1.094-0.233,1.562-0.419C36.337,6.403,35.866,6.868,35.334,7.271z"/>
	</g>
	<g>
		<path fill="#3D3536" d="M30,20c-5.523,0-10,4.477-10,10c0,5.521,4.477,10,10,10c5.521,0,10-4.479,10-10C40,24.477,35.521,20,30,20
			z M35.334,27.271c0.055,1.819-0.454,3.28-1.13,4.418c-0.669,1.123-1.565,2.016-2.64,2.67c-1.08,0.658-2.526,1.136-4.219,1.089
			c-1.582-0.044-2.836-0.499-3.863-1.12c-0.064-0.039-0.144-0.071-0.188-0.137c1.752,0.199,3.104-0.387,4.052-1.121
			c-0.701-0.021-1.234-0.27-1.644-0.596s-0.741-0.769-0.911-1.33c0.357,0.086,0.877,0.062,1.204-0.031
			c-0.656-0.146-1.146-0.498-1.519-0.932c-0.371-0.431-0.647-1.007-0.649-1.791c0.022-0.033,0.077,0.022,0.114,0.043
			c0.291,0.146,0.673,0.26,1.1,0.281c-0.671-0.482-1.352-1.406-1.162-2.689c0.057-0.375,0.188-0.701,0.335-0.975
			c0.185,0.172,0.335,0.377,0.513,0.555c1.233,1.232,2.842,2.146,5.151,2.313c-0.274-1.458,0.458-2.53,1.361-3.036
			c0.491-0.275,1.204-0.42,1.885-0.283c0.621,0.125,1.097,0.438,1.466,0.807c0.68-0.125,1.227-0.379,1.749-0.659
			c-0.229,0.669-0.627,1.173-1.194,1.507c0.569-0.049,1.094-0.232,1.562-0.419C36.337,26.402,35.866,26.868,35.334,27.271z"/>
	</g>
</g>
</svg>
